<?xml version="1.0" encoding="UTF-8" standalone="no"?>
<!DOCTYPE svg PUBLIC "-//W3C//DTD SVG 1.1//EN" "http://www.w3.org/Graphics/SVG/1.1/DTD/svg11.dtd">
<svg width="100%" height="100%" viewBox="0 0 1268 266" version="1.1" xmlns="http://www.w3.org/2000/svg" xmlns:xlink="http://www.w3.org/1999/xlink" xml:space="preserve" xmlns:serif="http://www.serif.com/" style="fill-rule:evenodd;clip-rule:evenodd;stroke-linejoin:round;stroke-miterlimit:2;">
    <g transform="matrix(1,0,0,1,-1799.86,-4516.37)">
        <g id="logo" transform="matrix(0.96984,0,0,0.591926,3804.52,4367.68)">
            <rect x="-2067" y="251.196" width="1307" height="447.804" style="fill:none;"/>
            <g transform="matrix(1.20412,0,0,1.6894,-2479.61,-665.949)">
                <g transform="matrix(98,0,0,98,583.963,624.138)">
                    <path d="M0.047,-0L0.047,-0.728L0.338,-0.728C0.391,-0.728 0.436,-0.72 0.472,-0.704C0.508,-0.688 0.535,-0.666 0.553,-0.638C0.571,-0.61 0.579,-0.577 0.579,-0.541C0.579,-0.513 0.574,-0.488 0.562,-0.466C0.551,-0.445 0.535,-0.427 0.515,-0.414C0.496,-0.4 0.473,-0.39 0.448,-0.385L0.448,-0.377C0.476,-0.376 0.502,-0.368 0.526,-0.354C0.55,-0.34 0.57,-0.319 0.585,-0.294C0.6,-0.268 0.608,-0.237 0.608,-0.201C0.608,-0.163 0.598,-0.128 0.579,-0.098C0.56,-0.068 0.532,-0.044 0.495,-0.026C0.458,-0.009 0.412,-0 0.358,-0L0.047,-0ZM0.2,-0.126L0.326,-0.126C0.369,-0.126 0.4,-0.134 0.42,-0.15C0.44,-0.167 0.449,-0.189 0.449,-0.216C0.449,-0.236 0.445,-0.254 0.435,-0.27C0.425,-0.285 0.411,-0.297 0.393,-0.306C0.375,-0.315 0.354,-0.319 0.33,-0.319L0.2,-0.319L0.2,-0.126ZM0.2,-0.423L0.315,-0.423C0.336,-0.423 0.354,-0.427 0.371,-0.434C0.387,-0.442 0.4,-0.452 0.41,-0.466C0.419,-0.48 0.424,-0.496 0.424,-0.515C0.424,-0.541 0.415,-0.563 0.396,-0.579C0.378,-0.595 0.351,-0.603 0.318,-0.603L0.2,-0.603L0.2,-0.423Z" style="fill:white;fill-rule:nonzero;"/>
                </g>
                <g transform="matrix(98,0,0,98,645.5,624.138)">
                    <path d="M0.375,0.01C0.31,0.01 0.252,-0.005 0.201,-0.034C0.149,-0.063 0.108,-0.106 0.079,-0.162C0.049,-0.217 0.034,-0.284 0.034,-0.363C0.034,-0.443 0.049,-0.51 0.079,-0.566C0.108,-0.622 0.149,-0.664 0.201,-0.694C0.252,-0.723 0.31,-0.737 0.375,-0.737C0.439,-0.737 0.497,-0.723 0.548,-0.694C0.6,-0.664 0.64,-0.622 0.67,-0.566C0.7,-0.51 0.715,-0.443 0.715,-0.363C0.715,-0.284 0.7,-0.217 0.67,-0.161C0.64,-0.106 0.6,-0.063 0.548,-0.034C0.497,-0.005 0.439,0.01 0.375,0.01ZM0.375,-0.126C0.412,-0.126 0.444,-0.135 0.472,-0.153C0.5,-0.172 0.521,-0.198 0.536,-0.234C0.552,-0.269 0.559,-0.312 0.559,-0.363C0.559,-0.415 0.552,-0.458 0.536,-0.494C0.521,-0.529 0.5,-0.556 0.472,-0.574C0.444,-0.592 0.412,-0.601 0.375,-0.601C0.338,-0.601 0.305,-0.592 0.277,-0.574C0.25,-0.556 0.228,-0.529 0.213,-0.494C0.197,-0.458 0.19,-0.415 0.19,-0.363C0.19,-0.312 0.197,-0.269 0.213,-0.234C0.228,-0.198 0.25,-0.172 0.277,-0.153C0.305,-0.135 0.338,-0.126 0.375,-0.126Z" style="fill:white;fill-rule:nonzero;"/>
                </g>
                <g transform="matrix(98,0,0,98,715.267,624.138)">
                    <path d="M0.172,-0L0.007,-0L0.258,-0.728L0.456,-0.728L0.707,-0L0.543,-0L0.36,-0.561L0.354,-0.561L0.172,-0ZM0.162,-0.286L0.551,-0.286L0.551,-0.166L0.162,-0.166L0.162,-0.286Z" style="fill:white;fill-rule:nonzero;"/>
                </g>
                <g transform="matrix(98,0,0,98,785.274,624.138)">
                    <path d="M0.047,-0L0.047,-0.728L0.333,-0.728C0.389,-0.728 0.436,-0.718 0.474,-0.698C0.513,-0.679 0.543,-0.651 0.564,-0.615C0.584,-0.58 0.595,-0.538 0.595,-0.49C0.595,-0.442 0.584,-0.4 0.563,-0.365C0.542,-0.33 0.512,-0.304 0.473,-0.285C0.433,-0.267 0.386,-0.258 0.33,-0.258L0.138,-0.258L0.138,-0.381L0.304,-0.381C0.334,-0.381 0.359,-0.385 0.378,-0.394C0.398,-0.402 0.412,-0.414 0.422,-0.43C0.431,-0.446 0.436,-0.466 0.436,-0.49C0.436,-0.514 0.431,-0.534 0.422,-0.551C0.412,-0.568 0.397,-0.58 0.378,-0.589C0.359,-0.597 0.334,-0.601 0.304,-0.601L0.2,-0.601L0.2,-0L0.047,-0ZM0.451,-0L0.274,-0.331L0.439,-0.331L0.621,-0L0.451,-0Z" style="fill:white;fill-rule:nonzero;"/>
                </g>
                <g transform="matrix(98,0,0,98,846.429,624.138)">
                    <path d="M0.305,-0L0.115,-0L0.115,-0.132L0.298,-0.132C0.344,-0.132 0.382,-0.14 0.413,-0.156C0.444,-0.172 0.468,-0.197 0.484,-0.232C0.5,-0.266 0.507,-0.31 0.507,-0.364C0.507,-0.418 0.5,-0.462 0.484,-0.496C0.468,-0.53 0.444,-0.555 0.413,-0.571C0.382,-0.587 0.344,-0.596 0.298,-0.596L0.112,-0.596L0.112,-0.728L0.307,-0.728C0.38,-0.728 0.443,-0.713 0.496,-0.684C0.549,-0.655 0.589,-0.613 0.618,-0.559C0.646,-0.505 0.66,-0.44 0.66,-0.364C0.66,-0.288 0.646,-0.223 0.618,-0.169C0.589,-0.115 0.548,-0.073 0.495,-0.044C0.442,-0.015 0.379,-0 0.305,-0ZM0.2,-0.728L0.2,-0L0.047,-0L0.047,-0.728L0.2,-0.728Z" style="fill:white;fill-rule:nonzero;"/>
                </g>
                <g transform="matrix(98,0,0,98,914.473,624.138)">
                    <path d="M0.377,0.01C0.309,0.01 0.249,-0.005 0.198,-0.035C0.146,-0.066 0.106,-0.109 0.077,-0.164C0.048,-0.22 0.034,-0.286 0.034,-0.363C0.034,-0.441 0.049,-0.509 0.079,-0.565C0.109,-0.621 0.15,-0.663 0.201,-0.693C0.253,-0.723 0.31,-0.737 0.374,-0.737C0.416,-0.737 0.454,-0.731 0.489,-0.719C0.525,-0.708 0.556,-0.691 0.584,-0.669C0.611,-0.647 0.634,-0.621 0.651,-0.591C0.669,-0.561 0.68,-0.528 0.685,-0.492L0.529,-0.492C0.524,-0.509 0.517,-0.525 0.508,-0.538C0.499,-0.552 0.488,-0.563 0.475,-0.573C0.462,-0.582 0.448,-0.589 0.431,-0.594C0.415,-0.599 0.397,-0.601 0.377,-0.601C0.34,-0.601 0.307,-0.592 0.279,-0.574C0.251,-0.555 0.229,-0.529 0.213,-0.493C0.198,-0.458 0.19,-0.415 0.19,-0.364C0.19,-0.314 0.197,-0.271 0.213,-0.235C0.228,-0.2 0.25,-0.173 0.278,-0.154C0.307,-0.135 0.34,-0.126 0.379,-0.126C0.413,-0.126 0.443,-0.132 0.467,-0.145C0.492,-0.157 0.511,-0.175 0.524,-0.198C0.537,-0.22 0.544,-0.247 0.544,-0.278L0.575,-0.273L0.388,-0.273L0.388,-0.389L0.692,-0.389L0.692,-0.297C0.692,-0.234 0.679,-0.179 0.652,-0.133C0.625,-0.087 0.588,-0.052 0.54,-0.027C0.493,-0.003 0.438,0.01 0.377,0.01Z" style="fill:white;fill-rule:nonzero;"/>
                </g>
                <g transform="matrix(98,0,0,98,983.619,624.138)">
                    <path d="M0.172,-0L0.007,-0L0.258,-0.728L0.456,-0.728L0.707,-0L0.543,-0L0.36,-0.561L0.354,-0.561L0.172,-0ZM0.162,-0.286L0.551,-0.286L0.551,-0.166L0.162,-0.166L0.162,-0.286Z" style="fill:white;fill-rule:nonzero;"/>
                </g>
                <g transform="matrix(98,0,0,98,1053.63,624.138)">
                    <path d="M0.047,-0.728L0.237,-0.728L0.437,-0.239L0.445,-0.239L0.646,-0.728L0.837,-0.728L0.837,-0L0.686,-0L0.686,-0.474L0.68,-0.474L0.491,-0.004L0.389,-0.004L0.202,-0.475L0.196,-0.475L0.196,-0L0.047,-0L0.047,-0.728Z" style="fill:white;fill-rule:nonzero;"/>
                </g>
                <g transform="matrix(98,0,0,98,1140.19,624.138)">
                    <path d="M0.047,-0L0.047,-0.728L0.537,-0.728L0.537,-0.601L0.2,-0.601L0.2,-0.43L0.512,-0.43L0.512,-0.305L0.2,-0.305L0.2,-0.127L0.538,-0.127L0.538,-0L0.047,-0Z" style="fill:white;fill-rule:nonzero;"/>
                </g>
            </g>
            <g transform="matrix(1.0311,0,0,1.48706,-2663.97,-246.598)">
                <path d="M657.125,624.138L583.963,461.68L623.498,461.68L683.709,595.736L686.663,595.736L746.875,461.68L786.41,461.68L713.247,624.138L657.125,624.138Z" style="fill:rgb(255,136,0);fill-rule:nonzero;stroke:rgb(255,136,0);stroke-width:6.37px;"/>
                <rect x="802.315" y="461.68" width="36.354" height="162.458" style="fill:rgb(255,136,0);fill-rule:nonzero;stroke:rgb(255,136,0);stroke-width:6.37px;"/>
                <path d="M865.253,625.274L865.253,595.736L995.901,595.963C1002.57,595.963 1007.68,594.411 1011.24,591.305C1014.8,588.2 1016.58,583.163 1016.58,576.196C1016.58,569.228 1014.8,564.191 1011.24,561.086C1007.68,557.981 1002.57,556.428 995.901,556.428L914.558,556.428C897.744,556.428 884.68,552.376 875.364,544.272C866.048,536.168 861.39,524.239 861.39,508.486C861.39,492.732 866.048,480.804 875.364,472.7C884.68,464.596 897.744,460.544 914.558,460.544L1042.25,460.544L1042.25,490.082L918.421,489.854C911.907,489.854 906.833,491.331 903.198,494.285C899.562,497.239 897.744,501.973 897.744,508.486C897.744,514.999 899.562,519.733 903.198,522.687C906.833,525.641 911.907,527.117 918.421,527.117L999.763,527.117C1016.58,527.117 1029.64,531.245 1038.96,539.501C1048.27,547.756 1052.93,559.988 1052.93,576.196C1052.93,592.252 1048.27,604.446 1038.96,612.777C1029.64,621.108 1016.58,625.274 999.763,625.274L865.253,625.274Z" style="fill:rgb(255,136,0);fill-rule:nonzero;stroke:rgb(255,136,0);stroke-width:6.37px;"/>
                <rect x="1075.65" y="461.68" width="36.354" height="162.458" style="fill:rgb(255,136,0);fill-rule:nonzero;stroke:rgb(255,136,0);stroke-width:6.37px;"/>
                <path d="M1225.84,625.274C1196.91,625.274 1174.49,618.344 1158.59,604.484C1142.68,590.624 1134.73,570.061 1134.73,542.795C1134.73,515.681 1142.68,495.194 1158.59,481.334C1174.49,467.474 1197.44,460.544 1227.43,460.544L1268.33,460.544C1298.32,460.544 1321.27,467.474 1337.17,481.334C1353.08,495.194 1361.03,515.681 1361.03,542.795C1361.03,570.061 1353.08,590.624 1337.17,604.484C1321.27,618.344 1298.7,625.274 1269.47,625.274L1225.84,625.274ZM1229.93,490.082C1213.12,490.082 1200.01,493.111 1190.62,499.17C1181.23,505.229 1175.32,514.848 1172.9,528.026L1322.86,528.026C1320.44,514.848 1314.53,505.229 1305.14,499.17C1295.75,493.111 1282.64,490.082 1265.83,490.082L1229.93,490.082ZM1230.61,595.736L1265.83,595.736C1282.8,595.736 1295.94,592.706 1305.25,586.647C1314.57,580.588 1320.44,570.894 1322.86,557.564L1172.9,557.564C1175.32,570.894 1181.23,580.588 1190.62,586.647C1200.01,592.706 1213.34,595.736 1230.61,595.736Z" style="fill:rgb(255,136,0);fill-rule:nonzero;stroke:rgb(255,136,0);stroke-width:6.37px;"/>
                <path d="M1383.75,624.138L1383.75,461.68L1420.56,461.68L1535.53,578.468L1535.53,461.68L1571.89,461.68L1571.89,624.138L1535.08,624.138L1420.11,507.123L1420.11,624.138L1383.75,624.138Z" style="fill:rgb(255,136,0);fill-rule:nonzero;stroke:rgb(255,136,0);stroke-width:6.37px;"/>
            </g>
            <g transform="matrix(4.04879,0,0,18.0341,2640.57,-10975)">
                <g transform="matrix(0.284159,0,0,0.104526,-1836.06,212.009)">
                    <path d="M3306.22,4156.34L3304.03,3935.21L3496.56,4069.75" style="fill:none;stroke:white;stroke-width:14.34px;stroke-linecap:round;stroke-miterlimit:1.5;"/>
                </g>
                <g transform="matrix(0.330372,0,0,0.121525,-1989.06,141.497)">
                    <path d="M3394.96,4127.84L3380.52,4146.3L3344.18,4146.3L3358.62,4127.84L3394.96,4127.84Z" style="fill:white;stroke:white;stroke-width:7.71px;stroke-miterlimit:1.5;"/>
                </g>
                <g transform="matrix(0.330372,0,0,0.121525,-1969.62,141.497)">
                    <path d="M3394.96,4127.84L3380.52,4146.3L3344.18,4146.3L3358.62,4127.84L3394.96,4127.84Z" style="fill:white;stroke:white;stroke-width:7.71px;stroke-miterlimit:1.5;"/>
                </g>
                <g transform="matrix(0.330372,0,0,0.121525,-1980.32,137.301)">
                    <path d="M3394.96,4127.84L3380.52,4146.3L3344.18,4146.3L3358.62,4127.84L3394.96,4127.84Z" style="fill:white;stroke:white;stroke-width:7.71px;stroke-linecap:round;stroke-miterlimit:1.5;"/>
                </g>
            </g>
        </g>
    </g>
</svg>
